.
 
http://www.scenetime.com    -   SceneTime [ We been having it ] !!!


How come you press harder on a remote control when you know the battery is dead? so you better seed to get speed ;)

        Seed back for speed


...................................NFO:.................................................[img]http://img713.imageshack.us/img713/4970/winwinbd.jpg[/img]


[color=blue][size=5][b]Win.Win.2011.BDRip.XVID.AC3.HQ.Hive-CM8[/b][/size][/color]


[b]Thx Hive

CM8 Doing It Right The First Time :D


Source: Bluray

Video: 720x384 @bitrate 1700 2pass
Audio: English DTS to AC3 5.1 @384
Sample: yes included
Subs: yes english in srt /subs[/b]


[url]http://www.imdb.com/title/tt1606392/[/url]


General
Complete name                    : Win.Win.2011.BDRip.XVID.AC3.HQ.Hive-CM8.avi
Format                           : AVI
Format/Info                      : Audio Video Interleave
File size                        : 1.55 GiB
Duration                         : 1h 46mn
Overall bit rate                 : 2 093 Kbps
Writing application              : Nandub v1.0rc2
Writing library                  : Nandub build 1853/release

Video
ID                               : 0
Format                           : MPEG-4 Visual
Format profile                   : Advanced Simple@L5
Format settings, BVOP            : 1
Format settings, QPel            : Yes
Format settings, GMC             : No warppoints
Format settings, Matrix          : Default (H.263)
Muxing mode                      : Packed bitstream
Codec ID                         : XVID
Codec ID/Hint                    : XviD
Duration                         : 1h 46mn
Bit rate                         : 1 700 Kbps
Width                            : 720 pixels
Height                           : 384 pixels
Display aspect ratio             : 1.850
Frame rate                       : 23.976 fps
Color space                      : YUV
Chroma subsampling               : 4:2:0
Bit depth                        : 8 bits
Scan type                        : Progressive
Compression mode                 : Lossy
Bits/(Pixel*Frame)               : 0.256
Stream size                      : 1.26 GiB (81%)
Writing library                  : XviD 1.2.1 (UTC 2008-12-04)

Audio
ID                               : 1
Format                           : AC-3
Format/Info                      : Audio Coding 3
Mode extension                   : CM (complete main)
Codec ID                         : 2000
Duration                         : 1h 46mn
Bit rate mode                    : Constant
Bit rate                         : 384 Kbps
Channel(s)                       : 6 channels
Channel positions                : Front: L C R, Side: L R, LFE
Sampling rate                    : 48.0 KHz
Bit depth                        : 16 bits
Compression mode                 : Lossy
Stream size                      : 291 MiB (18%)
Alignment                        : Split accross interleaves
Interleave, duration             : 42 ms (1.00 video frame)
Interleave, preload duration     : 500 ms


Plot:
A struggling lawyer and volunteer wrestling coach's chicanery comes back to haunt him
when the teenage grandson of the client he's double-crossed comes into his life.


Cast:
Paul Giamatti    ...    Mike Flaherty
Amy Ryan         ...    Jackie Flaherty
Bobby Cannavale  ...    Terry Delfino
Jeffrey Tambor   ...    Stephen Vigman
Burt Young       ...    Leo Poplar
Melanie Lynskey  ...    Cindy


[img]http://img29.imageshack.us/img29/7031/48482215.png[/img]
[img]http://img803.imageshack.us/img803/977/wiwi.png[/img]
[img]http://img36.imageshack.us/img36/3462/wiwiwii.png[/img]
[img]http://img29.imageshack.us/img29/7789/wiwiwiwi.png[/img]
[img]http://img64.imageshack.us/img64/8272/wiwiwiwiwi.png[/img]
[img]http://img231.imageshack.us/img231/9933/wiwiwiwiwwii.png[/img]
[img]http://img135.imageshack.us/img135/4166/wiwiwiwiwwiiwi.png[/img]
[img]http://img88.imageshack.us/img88/7761/wiwiwiwiwwiiwwii.png[/img]



Greetz

ViSiON,SiC,SANTi,3LT0N,YanKeeS,MAGNET,THC,T0XiC,LKRG,FANTASIA-PLAY,FANTASIA-M,BHRG,WBZ
D2U,IMAGiNE,FLAWL3SS,NOVA,Vik,Rapeseed,SAFC,goldadvance,MEMORY100,scumbag,Hero5,Pinnz
Unevano,KaN1vE,Wayne,cedrict wink,Mr Hive and all P2P groups
Great Work Guys :D

FYS

CM8@hushmail.com